PathFileType	4	(X/Y/Z)	12_1_34_p1_0-339.trc
DataRate	CameraRate	NumFrames	NumMarkers	Units	OrigDataRate	OrigDataStartFrame	OrigNumFrames
58.0	58.0	6	27	m	58.0	170	340
Frame#	Time	RHip			RKnee			RAnkle			RBigToe			RSmallToe			RHeel			LHip			LKnee			LAnkle			LBigToe			LSmallToe			LHeel			Neck			Head			Nose			RShoulder			RElbow			RWrist			RThumb			RIndex			RPinky			LShoulder			LElbow			LWrist			LThumb			LIndex			LPinky			
		X1	Y1	Z1	X2	Y2	Z2	X3	Y3	Z3	X4	Y4	Z4	X5	Y5	Z5	X6	Y6	Z6	X7	Y7	Z7	X8	Y8	Z8	X9	Y9	Z9	X10	Y10	Z10	X11	Y11	Z11	X12	Y12	Z12	X13	Y13	Z13	X14	Y14	Z14	X15	Y15	Z15	X16	Y16	Z16	X17	Y17	Z17	X18	Y18	Z18	X19	Y19	Z19	X20	Y20	Z20	X21	Y21	Z21	X22	Y22	Z22	X23	Y23	Z23	X24	Y24	Z24	X25	Y25	Z25	X26	Y26	Z26	X27	Y27	Z27	
170	2.9310344827586206	0.4486903480969635	0.4841396705631619	1.0342354428213183	0.4842781100092432	0.5411959297109907	1.50004105651799	0.5006508452310725	0.5973860283113632	1.9264199279892804	0.47388828281097034	0.3781944363928281	1.931127441965562	0.5333048440435664	0.3994130189300036	1.9118956742372408	0.48483220459588167	0.6538413126403478	2.0190411557272494	0.21752609253796856	0.5338399543285247	1.0690728857594571	0.26541680169655263	0.5353539996039486	1.529789471724391	0.3296342098816665	0.600283749576001	1.959626774462153	0.33251135894215017	0.3818800027346983	1.9469530164061808	0.26358867697209426	0.41800415294601406	1.9446205216291903	0.34362566477236295	0.6500372170334989	2.0237731151431633	0.2659526372593775	0.5795363601863986	0.4242693335960058	0.24848316806439283	0.5118175307471609	0.16942967930758066	0.25642174331196066	0.45890581504601957	0.295080377329673	0.4495337207189067	0.5661841883558991	0.5245556237413345	0.5176104918442734	0.5149698302186871	0.7928143882073018	0.5464753577804446	0.43234556403037994	1.0353735810429985	0.4990653354934257	0.40842706206198487	1.181459067898864	0.5206077988170339	0.3815820038044438	1.1915998882971717	0.5569192284910334	0.4272710720714854	1.198411763354951	0.10456102287648246	0.5586199577733456	0.5300872639906075	0.08020026056802133	0.5593845704192303	0.8406002468983506	0.11759927911287016	0.46722932339855583	1.1007481596056266	0.17951344140796435	0.4572961091415577	1.1955634973220917	0.1628564644976739	0.43148323928871185	1.2012091918016499	0.107821130251622	0.4761883456142411	1.2238632383749575
171	2.9482758620689653	0.4486817861933615	0.4842322017106035	1.034244573716252	0.48429210495827896	0.5411377602394575	1.5000228993327154	0.5014214019050448	0.5954024383931459	1.9299310921445467	0.4738821493346407	0.3782939118142656	1.9312109847792904	0.5332728219497677	0.3994207936650641	1.9119052555668956	0.4847930458303919	0.6536471299495548	2.018835578220609	0.21751084246481997	0.5340877104488725	1.0690081691093851	0.27312459315155074	0.550205730112375	1.5362693528174012	0.32965530303156126	0.6002710951154738	1.9595748903726675	0.3333519427903847	0.38027466027479057	1.9504409357380055	0.26361546163265703	0.41806699369374506	1.9446868460214382	0.3421602798693429	0.6485730120425189	2.0177998535249335	0.26598050630644393	0.5796649383553394	0.4242246922846966	0.24844243934600935	0.511790187191097	0.1694139246772518	0.2563863322691056	0.45888970877743723	0.29507378549050994	0.4495763121247366	0.5662399282181975	0.5246172769282516	0.5176799317626933	0.5149122405407025	0.7928867496216777	0.5457995994966217	0.4335629215549092	1.0359932360361674	0.5001805287462316	0.40971247650652814	1.1901675785090773	0.5206943067901224	0.38159648697452875	1.1916947790228714	0.5570818104388677	0.4277845836307259	1.1986150705675576	0.10444131683300802	0.5588669058755262	0.5302133472672907	0.08019767961014765	0.5595864585193795	0.8406716689564553	0.11766980401443264	0.4672894353221993	1.1008515557193175	0.1794587022546939	0.4571214045799997	1.195667802533394	0.16286228970584493	0.43143225435455823	1.2013098565572227	0.10784127577150307	0.4765788216122055	1.2241915768839116
172	2.9655172413793105	0.44865559247870335	0.4842783868241958	1.0342914598164494	0.4842671856554938	0.5412044681931999	1.5000302505818532	0.5006142935488682	0.5976020730639895	1.9265866389176018	0.4738069545675061	0.37804138912206947	1.9310206240115564	0.5332319546030951	0.39943183591639275	1.911870161510391	0.48488366662364646	0.653637954344203	2.018953738638553	0.2175563976513665	0.5340388895964705	1.0690625007970878	0.27312277177435024	0.55039274581057	1.5363041682804355	0.3296054157413495	0.6000667350187526	1.9595705678192843	0.3333240145932937	0.3798563962603184	1.9501946739465692	0.26360267185144953	0.41789018316206744	1.944728385752861	0.3436719690919295	0.649738502229218	2.02382954126111	0.26600542316950404	0.5796256190547817	0.4242726086758263	0.24843174824026587	0.511691484726951	0.16945540496115127	0.25639615550225203	0.4588733009499831	0.2951091440980467	0.4495921506235227	0.5662567577625262	0.5246006108054653	0.5169104005451711	0.4901938833383554	0.7862563252468132	0.547582228039155	0.433536052907011	1.0435672519035877	0.500179384685265	0.4099309952176685	1.1902521967137676	0.5174083149601505	0.39477666556808483	1.197981977794577	0.5543767134582417	0.4418892193636015	1.2052377347105554	0.10445894685775083	0.5584660642750049	0.5301793875616465	0.08019262816399325	0.5595755779971433	0.8406262874163383	0.11769340912163807	0.46726652068492797	1.1008619708058043	0.17940995982603639	0.4570688638716435	1.1956091749980773	0.16284463416735226	0.43137967824413986	1.2012857135601434	0.10791530732656154	0.47672950122390984	1.2242479377196755
173	2.9827586206896552	0.4485931806385223	0.48430623722844884	1.0342897809486986	0.48431688392157324	0.5412385953498086	1.5000149890331278	0.5006204655202428	0.5973336951196736	1.9264139942896545	0.4739068465109139	0.37815159901323897	1.931111886903205	0.5333589820553577	0.39951709192935203	1.9119073386608645	0.4845563090626578	0.6527760407855862	2.01828984733031	0.21723418334991995	0.5315209315761349	1.0681557245438138	0.27309111605530895	0.5502407528303838	1.5362871963312728	0.3295820246097823	0.600180222123541	1.9595651156802905	0.3333748299875453	0.3796715750129256	1.9501481441060426	0.2636384291097583	0.417756727593435	1.9447157556092871	0.34302944833008636	0.6503537455370982	2.029691337045151	0.2660207796472238	0.5796757415543478	0.42431238325535914	0.24839690161794942	0.5116795821118622	0.16945211829750811	0.2563920444761015	0.45885719091468274	0.29513662239467514	0.44954977864442147	0.566238063874408	0.5245722366847517	0.5208105234763136	0.5011484888342216	0.7887259846140404	0.5475510178786385	0.43370018408455147	1.0436519446698673	0.5004219486245923	0.4098141161118075	1.1864740953512178	0.5174495940946487	0.39479629001328215	1.1979185671812127	0.5582843010238835	0.4532883259049002	1.2094114162998861	0.10453559969106935	0.5586052035907167	0.5300897863881159	0.08018190413658703	0.5596238958458343	0.8406361318484419	0.1176198304683553	0.46725864769370373	1.1008613104843086	0.1794148720127277	0.45723805171419873	1.1956777415465794	0.16281875625785233	0.43151967121199347	1.2013505389194001	0.10784506867813029	0.47660076933923645	1.2241927444421734
174	3.0	0.4486366864877305	0.4843562940748229	1.0343448144895864	0.4843110895257942	0.5412464682070829	1.500087054782898	0.5006133825878114	0.5973624267168537	1.9264086157363665	0.4738314221761501	0.3781346610300371	1.9311816637433288	0.5295066128288144	0.38908486015294397	1.905295848701348	0.4864152854156968	0.65484333280277	2.024593450876997	0.2175578602925214	0.5338274779296724	1.0691558959015681	0.2730788659210828	0.5502577286955902	1.5362568397230791	0.32963453819341826	0.6001614957386536	1.9595312098663118	0.3332541302215352	0.37973499279673656	1.95012178629662	0.26362313508423363	0.41782913003024924	1.9447359461104645	0.3421533316230267	0.6482579174223322	2.017786204728789	0.26598422310793984	0.5795593080759018	0.4243219451186173	0.24840271392663715	0.5116689761823365	0.16944247048148237	0.2563961966412036	0.45887030002479107	0.29514463979024214	0.44955036084346284	0.5662011809901164	0.524595544879713	0.5170059294406575	0.49029150416265305	0.7862081324991961	0.5470271827144001	0.4351791964582538	1.0362748061102318	0.4999051598405308	0.4112472176033385	1.183340107119808	0.5207784934939994	0.3819856806264568	1.191775208915633	0.5582288070037928	0.453493930819604	1.209462636282747	0.10449792886205289	0.5588497068575702	0.530137238432559	0.08021304449436018	0.5596825153243985	0.8406060662172742	0.1176280155629864	0.4673359574460907	1.1008947057175487	0.17936940191035528	0.45709661804874513	1.1956025968376582	0.1628526168110315	0.4314542943392357	1.2012685474888265	0.10789583913710517	0.4765726678381351	1.2241552891597867
175	3.0172413793103448	0.4487135141801316	0.48404608105852065	1.034218209845843	0.4843143004912994	0.5412344503902733	1.5000906019770501	0.5006140822348143	0.5973681948826106	1.9264178935209124	0.4738785690027235	0.3781761367268978	1.9312007936110815	0.5333395226897365	0.39967738086292137	1.9120297671098347	0.48468481664601115	0.6529525800216993	2.0184367590309895	0.22076764581497765	0.5349518135378666	1.0646732168256992	0.2674694102480094	0.5459976565764838	1.5303456609000392	0.3298166995483206	0.6005494360709278	1.9598049283720014	0.3332933347833375	0.37988718389305437	1.9502584802426621	0.26681954615243864	0.4295842405486682	1.9525531426240526	0.3444800556308663	0.6482437011233234	2.026909686748361	0.26601932376781223	0.5796713428739375	0.4243307979109421	0.24796256644941045	0.5122211617425457	0.1661005155391671	0.25640900899837077	0.4588558368898452	0.2951493191838776	0.44957926250457786	0.5662819031208151	0.5246295792908141	0.5207783413439246	0.5012578088894215	0.7886876495193637	0.547056651799531	0.4351327463881537	1.036191793643345	0.499907821426699	0.41129171392927305	1.1833362332149575	0.5209506421864945	0.38202643997156605	1.1884456140818491	0.5612453885476414	0.439554487486058	1.1993571517221076	0.10446837381104644	0.5585236702628421	0.5301521612773527	0.08016942469131845	0.5595392943095571	0.8405436900380812	0.11760450236668145	0.4672327564716827	1.100814030909144	0.17939455935408996	0.4570852346316235	1.1956074844683875	0.16279046426980415	0.43145719513660025	1.2012854377901911	0.10301599046134027	0.4887807338391931	1.2297860685531858
